<?xml version="1.0" standalone="no"?>
<!DOCTYPE svg PUBLIC "-//W3C//DTD SVG 20010904//EN"
 "http://www.w3.org/TR/2001/REC-SVG-20010904/DTD/svg10.dtd">
<svg version="1.0" xmlns="http://www.w3.org/2000/svg"
 width="100%" height="100%" viewBox="200 260 400 645"
 preserveAspectRatio="xMidYMid meet">

<g transform="translate(0.000000,1184.000000) scale(0.100000,-0.100000)"
fill="#000000" stroke="none">
<path d="M5616 9199 c-107 -43 -283 -175 -418 -312 -71 -72 -211 -239 -248
-295 l-15 -23 -75 20 c-111 31 -262 51 -377 51 -111 0 -299 -34 -400 -72 -30
-11 -58 -16 -63 -12 -168 189 -282 296 -446 420 -363 273 -501 256 -555 -71
-15 -90 -15 -401 0 -530 28 -242 65 -402 124 -522 l33 -68 -28 -72 c-30 -78
-58 -218 -58 -292 0 -60 36 -339 51 -394 15 -57 44 -112 90 -172 l38 -51 -30
-59 c-42 -82 -37 -126 26 -247 57 -109 60 -143 22 -235 -38 -94 -39 -152 -2
-207 l25 -37 -35 -52 c-40 -59 -89 -180 -100 -246 -5 -32 -37 -91 -115 -210
-172 -267 -272 -455 -319 -599 -11 -34 -47 -118 -80 -185 -118 -240 -166 -432
-159 -637 4 -117 14 -166 52 -251 6 -13 -11 -20 -92 -42 -263 -68 -417 -208
-430 -387 -6 -93 16 -155 80 -225 96 -105 258 -162 494 -172 191 -9 327 24
402 96 39 38 41 39 81 28 28 -8 41 -17 41 -28 0 -23 46 -76 82 -95 16 -8 70
-21 121 -29 77 -11 105 -11 185 1 53 8 96 14 98 14 1 0 5 -14 9 -31 16 -70
117 -143 193 -138 21 1 52 -5 72 -16 46 -24 152 -25 197 -2 18 9 50 17 73 17
56 0 99 20 137 63 37 42 57 106 50 158 l-5 37 152 4 c83 3 158 7 166 9 11 3
15 -5 16 -26 2 -61 15 -105 41 -135 34 -42 118 -82 173 -85 25 -2 70 -10 100
-19 68 -20 121 -20 168 0 20 9 55 18 77 20 90 9 139 44 166 119 13 34 14 35
69 35 72 0 171 21 205 44 70 46 84 175 28 257 l-31 44 45 50 c52 59 103 157
103 197 0 16 15 51 35 81 47 69 80 178 95 311 23 208 -6 346 -136 641 l-88
200 -1 245 c-1 285 -7 321 -107 662 l-61 207 27 31 c44 52 46 102 11 229 -25
93 -17 148 28 202 73 85 97 216 58 318 l-19 50 30 28 c47 44 114 142 141 209
46 110 62 212 62 404 0 166 -2 179 -28 255 -16 44 -41 103 -58 132 l-29 52 25
48 c93 174 147 600 114 901 -22 208 -72 353 -133 391 -42 26 -105 26 -170 0z
m130 -57 c20 -13 41 -65 62 -152 76 -313 41 -816 -74 -1056 l-34 -72 35 -77
c20 -43 45 -110 56 -149 21 -75 37 -226 24 -226 -11 0 -135 93 -135 101 0 4
-16 17 -35 29 -24 15 -69 26 -142 36 -60 7 -109 14 -110 14 -2 0 -11 17 -22
38 -52 101 -165 172 -287 180 -165 10 -284 -81 -330 -252 -11 -40 -28 -176
-29 -231 0 -5 18 -13 40 -16 22 -4 68 -19 102 -33 135 -57 238 -57 352 0 76
38 124 85 152 150 10 23 25 47 33 54 38 30 148 -31 187 -104 16 -31 34 -49 54
-56 31 -11 125 -71 125 -80 -1 -5 -135 -188 -146 -200 -8 -7 -126 0 -141 9 -9
5 -2 22 27 61 22 30 40 58 40 63 1 23 -110 -21 -155 -62 -14 -13 -42 -20 -95
-24 -76 -6 -140 -23 -140 -37 0 -16 88 -42 160 -47 56 -3 90 -12 136 -35 l61
-30 -25 -25 c-20 -20 -22 -27 -11 -34 11 -8 0 -23 -49 -69 l-63 -59 31 -16
c17 -9 36 -13 42 -9 6 4 9 1 6 -7 -13 -44 -356 -173 -608 -230 -52 -11 -122
-27 -155 -35 -94 -21 -348 -18 -454 5 -47 11 -126 27 -176 36 -184 33 -456
145 -560 230 -29 24 -29 24 -5 20 13 -3 42 0 65 7 l40 11 -30 7 c-39 9 -117
55 -108 63 3 4 15 7 25 7 28 0 13 17 -34 39 l-42 19 82 41 c53 27 95 41 120
41 45 0 150 26 169 42 25 20 -3 31 -99 39 -85 6 -99 11 -163 48 -108 63 -136
54 -65 -23 22 -24 40 -48 40 -55 0 -7 -36 -11 -114 -11 -106 0 -115 2 -121 20
-3 11 -10 20 -15 20 -12 0 -30 66 -30 107 0 26 6 36 29 47 41 22 141 120 141
140 0 29 69 94 116 110 l45 15 43 -67 c50 -78 101 -126 165 -155 36 -16 67
-21 146 -21 94 -1 106 1 193 37 51 21 100 36 107 33 31 -12 39 21 27 117 -21
169 -63 259 -149 318 -68 47 -123 62 -212 57 -120 -7 -197 -57 -288 -190 -29
-42 -35 -46 -85 -53 -117 -14 -148 -29 -227 -110 -41 -41 -79 -75 -84 -75 -15
0 -1 153 21 235 11 39 28 100 38 137 l18 67 -31 63 c-43 86 -68 169 -97 323
-50 259 -59 578 -22 753 34 159 72 180 206 112 157 -80 506 -378 654 -559 28
-34 28 -35 72 -23 82 22 78 27 98 -120 l18 -133 -36 -59 c-32 -54 -41 -76 -37
-98 2 -12 -14 -9 -28 5 -11 10 -12 3 -6 -37 6 -45 5 -49 -9 -37 -25 21 -20 -3
15 -65 51 -90 129 -133 129 -72 0 13 -5 66 -11 118 -9 77 -9 103 2 134 8 22
19 41 25 43 17 6 63 -68 94 -153 17 -44 36 -84 44 -89 7 -6 15 -19 17 -30 9
-42 42 -19 53 36 5 25 8 26 76 26 l70 -1 7 -38 c3 -22 13 -43 24 -48 19 -11
30 10 100 175 16 39 40 84 54 100 25 30 25 30 41 10 12 -15 14 -36 11 -90 -7
-101 -15 -163 -22 -175 -8 -13 13 -40 31 -40 29 0 93 72 114 126 24 65 25 78
6 71 -12 -5 -13 2 -9 30 5 31 4 35 -10 30 -11 -4 -18 1 -23 15 -3 12 -21 44
-38 72 -18 28 -31 58 -30 66 1 8 8 70 15 138 l13 122 35 -6 c20 -4 46 -11 59
-15 41 -16 65 -11 59 10 -3 14 15 43 62 99 195 231 347 375 506 477 104 68
161 88 191 67z m-1396 -615 c0 -16 -37 -48 -58 -51 -9 -2 -18 -8 -20 -15 -3
-8 5 -10 23 -7 39 7 65 -23 58 -67 -3 -22 2 -58 16 -99 19 -59 51 -220 51
-257 0 -9 -5 -23 -10 -31 -9 -13 -12 -12 -25 4 -8 11 -22 44 -31 75 -24 85
-83 201 -101 201 -13 0 -14 12 -9 83 4 45 7 101 7 124 0 41 1 42 42 51 46 9
57 7 57 -11z m325 17 c17 -4 20 -12 17 -40 -2 -19 0 -40 6 -47 5 -6 12 -47 16
-89 6 -71 5 -78 -14 -88 -23 -12 -57 -82 -96 -201 -25 -76 -45 -97 -58 -63
-14 37 0 116 57 319 8 28 11 52 6 53 -16 6 -10 20 22 52 31 30 31 31 13 51
-10 11 -26 18 -36 16 -14 -4 -18 1 -18 19 0 20 5 24 33 24 17 0 41 -3 52 -6z
m-958 -895 c-25 -42 -32 -64 -35 -120 -6 -93 3 -129 43 -188 l33 -51 -26 14
c-90 47 -125 157 -85 271 16 43 78 125 96 125 3 0 -8 -23 -26 -51z m1547 9
c66 -77 84 -190 42 -263 -21 -35 -106 -107 -106 -90 0 3 13 23 29 46 64 88 67
224 6 313 -33 49 -15 45 29 -6z m-1406 6 c31 -22 29 -67 -4 -93 -15 -12 -34
-21 -42 -21 -49 0 -72 85 -30 114 12 9 29 16 38 16 9 0 26 -7 38 -16z m1136 0
c35 -35 3 -104 -48 -104 -50 0 -75 63 -39 102 20 22 66 24 87 2z m-820 -246
c-1 -13 -3 -33 -3 -45 -1 -25 -52 -68 -94 -78 l-28 -8 27 29 c33 36 74 120 74
155 0 14 3 29 8 33 8 9 20 -52 16 -86z m630 18 c4 -18 24 -59 46 -90 22 -31
37 -56 33 -56 -3 0 -25 11 -48 25 -46 27 -55 45 -55 118 0 54 14 56 24 3z
m371 8 c19 -20 16 -43 -7 -58 -35 -22 -74 27 -48 59 16 19 35 19 55 -1z
m-1154 -4 c20 -11 26 -54 8 -65 -5 -4 -21 -4 -35 -1 -26 7 -33 43 -12 64 15
15 15 15 39 2z m1589 -540 c0 -5 7 -7 15 -3 13 5 14 2 4 -21 -11 -24 -22 -27
-25 -5 -1 5 -2 13 -3 18 0 5 -9 12 -18 14 -14 4 -12 5 5 6 12 0 22 -3 22 -9z
m-3230 -3241 c0 -5 -9 -9 -21 -9 -11 0 -30 -5 -42 -11 -26 -13 -77 -60 -77
-70 0 -4 53 -6 118 -4 64 1 123 0 130 -2 27 -11 9 -20 -40 -22 -57 -2 -70 -7
-48 -22 27 -17 84 -28 225 -43 159 -17 220 -33 288 -75 85 -55 112 -141 65
-211 -25 -36 -91 -74 -150 -85 -35 -7 -36 -6 -35 24 1 16 0 31 -3 32 -3 1 -51
-4 -107 -11 -57 -7 -110 -10 -118 -6 -11 4 -15 20 -15 59 0 51 -17 87 -33 70
-14 -13 -6 96 9 132 19 47 8 63 -32 42 -68 -35 -113 -111 -130 -217 -4 -22 -8
-40 -10 -40 -2 0 -24 10 -49 22 -34 17 -45 27 -45 46 0 26 28 101 68 179 32
65 24 76 -40 57 -46 -14 -106 -62 -140 -113 -39 -57 -52 33 -16 107 26 51 116
138 169 161 42 19 79 24 79 10z m3223 -338 c49 -28 83 -130 57 -171 -8 -12
-10 -10 -10 10 0 14 -7 36 -15 50 -16 29 -21 20 -28 -54 -4 -43 -17 -65 -39
-66 -5 0 -8 16 -8 35 0 38 -24 105 -37 105 -4 0 -8 -19 -8 -43 -1 -23 -4 -55
-8 -70 -7 -26 -11 -28 -53 -25 -43 3 -47 6 -61 41 -15 37 -15 37 19 75 20 22
40 58 46 84 8 30 18 48 29 51 29 6 86 -4 116 -22z m-2149 -44 c7 -18 27 -44
44 -59 29 -24 30 -27 25 -87 -7 -71 -19 -81 -97 -81 -59 0 -75 15 -89 88 -6
34 -15 62 -19 62 -9 0 -28 -68 -28 -102 0 -33 -2 -33 -45 -13 -47 23 -61 55
-46 105 19 63 112 118 203 120 33 0 39 -4 52 -33z m1738 -81 c72 -17 101 -35
122 -79 34 -74 14 -155 -45 -176 -28 -10 -29 -9 -29 24 0 39 -28 117 -40 110
-4 -2 -10 -30 -13 -60 -3 -31 -13 -67 -21 -80 -20 -30 -73 -41 -135 -29 l-46
9 -6 50 c-12 99 -33 125 -45 58 -8 -46 -31 -93 -45 -93 -19 0 -84 38 -108 64
-20 21 -25 39 -29 102 l-5 77 66 -7 c55 -5 77 -2 139 19 83 28 155 31 240 11z
m-1087 -10 c22 -1 61 3 87 7 l47 8 11 -38 c6 -21 14 -67 17 -103 4 -57 2 -69
-19 -99 -12 -19 -38 -41 -55 -48 -32 -13 -33 -12 -33 10 0 34 -29 127 -40 127
-11 0 -17 -21 -25 -93 -6 -55 -9 -60 -41 -73 -43 -18 -98 -18 -134 1 -33 17
-36 25 -46 115 -6 64 -7 64 -24 42 -10 -12 -21 -40 -25 -62 -4 -27 -11 -38
-18 -33 -8 5 -8 2 0 -9 14 -16 8 -28 -14 -28 -10 0 -12 6 -8 20 4 11 2 20 -4
20 -6 0 -13 0 -16 0 -3 0 -4 -3 -2 -7 1 -5 6 -7 10 -5 5 1 6 -2 2 -8 -9 -15
-53 18 -72 53 -8 17 -17 64 -20 106 l-6 76 79 0 c46 0 102 8 134 18 40 12 71
15 115 10 33 -3 78 -7 100 -7z m-494 -15 c13 -12 -6 -96 -22 -99 -12 -2 -18 7
-22 40 -2 24 -8 51 -12 61 -7 16 -4 17 21 11 16 -4 32 -9 35 -13z"/>
<path d="M5510 9001 c-111 -83 -239 -225 -336 -372 -90 -135 -122 -195 -111
-205 14 -15 90 -24 103 -13 21 18 17 25 -22 35 l-35 9 66 105 c94 148 211 294
320 399 52 50 91 91 87 91 -4 0 -36 -22 -72 -49z"/>
<path d="M3286 9022 c5 -5 38 -29 74 -54 126 -88 341 -337 462 -534 3 -5 -11
-9 -33 -9 -21 -1 -41 -4 -45 -7 -16 -16 12 -28 67 -28 52 0 59 2 59 20 0 25
-93 177 -157 257 -110 138 -277 289 -374 338 -49 25 -71 32 -53 17z"/>
<path d="M5090 8034 c-17 -15 -37 -39 -45 -55 -14 -26 -14 -29 4 -39 33 -17
61 -11 128 25 86 49 84 81 -5 56 -30 -9 -32 -8 -32 15 0 31 -11 30 -50 -2z"/>
<path d="M3808 8044 c-4 -3 -4 -12 -1 -20 4 -11 -5 -14 -42 -12 -67 4 -67 -14
-1 -58 61 -40 122 -49 150 -22 13 13 10 21 -23 64 -34 45 -67 64 -83 48z"/>
<path d="M5325 7251 c-3 -5 -2 -12 3 -15 5 -3 9 1 9 9 0 17 -3 19 -12 6z"/>
<path d="M4394 7209 c-82 -19 -97 -80 -29 -120 19 -11 37 -29 40 -40 4 -11 17
-27 31 -35 31 -21 31 -54 -2 -94 -39 -45 -78 -63 -125 -55 -30 5 -39 3 -39 -7
0 -58 97 -49 186 18 l32 23 18 -20 c47 -52 146 -76 178 -43 24 23 10 35 -34
28 -44 -7 -94 17 -130 63 -26 34 -25 61 4 84 13 10 26 29 30 42 3 13 17 29 30
35 14 6 32 22 41 36 46 70 -83 118 -231 85z m193 -55 c2 -6 -14 -15 -34 -20
-36 -9 -38 -11 -38 -49 0 -39 -1 -40 -35 -40 -31 0 -35 3 -38 30 -5 39 -19 55
-48 55 -28 0 -42 19 -23 31 20 13 212 7 216 -7z"/>
<path d="M5266 6682 c-3 -5 1 -9 9 -9 8 0 12 4 9 9 -3 4 -7 8 -9 8 -2 0 -6 -4
-9 -8z"/>
</g>
</svg>
